PathFileType	4	(X/Y/Z)	../Python\running\Running04\task.trc
DataRate	CameraRate	NumFrames	NumMarkers	Units	OrigDataRate	OrigDataStartFrame	OrigNumFrames
200.000000	200.000000	6	30	mm	200.000000	0	226
Frame#	Time	C7			RBAK			CLAV			STRN			RASI			LASI			PE01			RTH2			RTH3			RHEE			RD5M			RTOE			LTH2			LTH3			LTB2			LTB3			LHEE			LTOE			LD5M			RTH1			LPSI			RTB2			PE03			RPSI			PE02			RTB1			RTB3			T10			LTH1			LTB1			
		X1	Y1	Z1	X2	Y2	Z2	X3	Y3	Z3	X4	Y4	Z4	X5	Y5	Z5	X6	Y6	Z6	X7	Y7	Z7	X8	Y8	Z8	X9	Y9	Z9	X10	Y10	Z10	X11	Y11	Z11	X12	Y12	Z12	X13	Y13	Z13	X14	Y14	Z14	X15	Y15	Z15	X16	Y16	Z16	X17	Y17	Z17	X18	Y18	Z18	X19	Y19	Z19	X20	Y20	Z20	X21	Y21	Z21	X22	Y22	Z22	X23	Y23	Z23	X24	Y24	Z24	X25	Y25	Z25	X26	Y26	Z26	X27	Y27	Z27	X28	Y28	Z28	X29	Y29	Z29	X30	Y30	Z30	

1	0	-1427.94677734375	1349.342041015625	170.1392669677735	-1440.484252929688	1264.208862304688	301.7589416503907	-1314.008666992188	1251.001342773438	140.9693450927735	-1281.308715820313	1054.027954101563	145.6987609863282	-1352.177490234375	845.8623657226567	319.8227844238282	-1336.147216796875	861.9965209960942	96.47660064697271	-1507.628295898438	965.3436889648442	219.9210815429689	-1550.384521484376	518.850524902344	304.2982788085939	-1502.571533203125	556.103698730469	314.6483459472657	-1880.007446289063	182.5653381347657	191.1654357910157	-1830.844848632813	39.25691986083986	249.2338714599611	-1804.555664062501	30.89883613586427	197.633270263672	-1301.222900390625	570.9351806640627	65.07158660888675	-1258.452758789063	634.9465942382815	52.00588226318362	-1201.463134765625	244.7100372314454	54.15341567993167	-1169.1943359375	281.4475402832032	59.102409362793	-1205.142944335938	71.34936523437503	104.2052917480469	-1023.41943359375	64.8819274902344	100.6129837036133	-1053.899291992188	51.09775543212893	51.66815948486331	-1534.262817382813	593.724060058594	326.9063110351564	-1526.433471679688	935.8504028320317	174.8346710205079	-1728.076171875001	316.2875366210939	282.0343627929689	-1541.736450195313	920.719360351563	183.4912872314454	-1525.253051757813	937.0031127929692	261.0884704589845	-1548.751220703126	915.090209960938	233.3748016357423	-1666.502319335938	325.2016906738282	276.2459716796876	-1719.359985351563	267.0399475097657	267.9558410644532	-1487.137817382813	1064.9189453125	219.4903411865236	-1307.941772460938	630.1313476562502	49.03625106811526	-1214.148193359375	322.8093872070314	48.30274200439456	
2	0.005	-1412.095092773438	1351.546997070313	169.4284667968751	-1422.877197265625	1267.447143554688	301.7545776367189	-1298.514038085938	1253.685424804688	139.1008605957032	-1265.126586914063	1057.381958007813	144.5530700683594	-1335.616088867188	847.4887695312505	319.4126892089845	-1319.223266601563	865.6105346679692	97.09568786621099	-1490.08203125	968.426879882813	220.1833038330079	-1537.391723632813	522.3611450195315	303.8553771972657	-1489.388061523438	559.1536865234377	314.8347473144532	-1867.534545898438	189.9673614501954	190.2845764160157	-1825.371215820313	43.87086105346681	248.3428497314454	-1799.124755859376	33.96889877319337	196.9722747802736	-1287.333129882813	572.5280761718752	64.27601623535159	-1243.944580078125	635.9414672851565	52.13783645629886	-1179.463989257813	244.9735870361329	54.67376708984378	-1148.4951171875	282.9775390625001	59.07637786865237	-1175.963623046875	72.83821868896487	104.6943283081055	-993.6369628906255	69.72205352783206	103.7806777954102	-1023.624633789063	53.67738342285159	54.8031921386719	-1520.74072265625	597.1501464843752	326.2305908203126	-1509.145629882813	939.1786499023442	174.9799194335938	-1716.743774414063	321.286102294922	281.1577148437501	-1524.194091796875	924.1908569335942	183.2318420410157	-1507.815307617188	940.239135742188	261.1448059082032	-1531.5341796875	918.3115234375005	233.0508270263673	-1655.024658203126	329.6023559570314	276.1521301269532	-1708.323852539063	271.8718566894532	268.1113281250001	-1470.848999023438	1067.648803710938	220.3840332031251	-1293.107421875	631.9448852539065	48.5962829589844	-1195.206420898438	322.5875549316407	48.65924453735354	
3	0.01	-1396.224609375	1353.520751953125	168.7392578125001	-1405.351684570313	1270.39990234375	301.7213439941407	-1282.9990234375	1256.109375	137.3259277343751	-1248.94677734375	1060.561157226563	143.4624481201172	-1319.052856445313	849.0144042968755	318.959930419922	-1302.397827148438	868.919067382813	97.66358184814459	-1472.643188476563	971.3582153320317	220.2859344482423	-1523.903198242188	525.460632324219	303.4474487304689	-1475.799438476563	561.8780517578127	315.0960693359376	-1855.065917968751	197.2329101562501	189.4040679931641	-1819.174926757813	48.98426437377933	247.4980773925782	-1792.882080078126	37.52476119995119	196.3371887207032	-1273.403930664063	573.8385009765627	63.50358581542972	-1229.357788085938	636.5877685546877	51.7519454956055	-1158.225830078125	245.3672027587892	55.25946807861331	-1128.460693359375	284.4844360351564	59.10785293579104	-1148.201293945313	74.58440399169925	105.2443847656251	-965.3625488281255	74.65762329101565	107.0403747558594	-994.8378906250005	56.43676757812503	58.03572463989261	-1506.8525390625	600.206481933594	325.5846252441407	-1491.932373046875	942.2778320312505	175.0078277587891	-1704.831420898438	325.9720153808595	280.2868957519532	-1506.70166015625	927.4109497070317	182.891586303711	-1490.429565429688	943.3054809570317	261.0772705078126	-1514.336669921875	921.3366088867192	232.6508636474611	-1642.986938476563	333.5509643554689	276.0114135742189	-1696.841918945313	276.4183044433595	268.1318359375001	-1454.631958007813	1070.16357421875	221.0492095947267	-1278.290893554688	633.409118652344	47.97858810424806	-1176.723754882813	322.4486083984376	49.07514190673831	
4	0.015	-1380.337890625	1355.261840820313	168.0696105957032	-1387.913940429688	1273.0615234375	301.6607360839845	-1267.467529296875	1258.270263671875	135.6467742919922	-1232.77392578125	1063.553955078125	142.4272155761719	-1302.488159179688	850.4420776367192	318.4712524414064	-1285.67138671875	871.9126586914067	98.1650009155274	-1455.328125	974.1141967773442	220.2242584228517	-1509.868896484375	528.1108398437502	303.0652160644532	-1461.751220703125	564.248229980469	315.393524169922	-1842.628662109376	204.3531341552736	188.4846954345704	-1812.246582031251	54.55218124389651	246.7270355224611	-1785.849853515626	41.54713058471681	195.7574157714845	-1259.371215820313	574.8713378906252	62.76166152954104	-1214.617553710938	636.9058837890627	50.85197448730472	-1137.738891601563	245.8489074707032	55.89419555664065	-1109.0654296875	285.9281616210939	59.20939254760745	-1121.944213867188	76.4799499511719	105.893783569336	-938.7070922851567	79.46556091308597	110.297836303711	-967.6693725585942	59.2270317077637	61.28800201416018	-1492.5546875	602.856628417969	324.9682617187501	-1474.806884765625	945.125366210938	174.9107208251954	-1692.333496093751	330.3275451660157	279.4354553222657	-1489.27978515625	930.3547363281255	182.4712677001954	-1473.1103515625	946.1707153320317	260.8822326660157	-1497.171752929688	924.138793945313	232.1774749755861	-1630.378540039063	337.0427551269532	275.804656982422	-1684.906860351563	280.6629943847657	267.9978942871095	-1438.484497070313	1072.452270507813	221.4940185546876	-1263.438598632813	634.5339355468752	47.19152832031251	-1158.668579101563	322.3813476562501	49.53493118286136	
5	0.02	-1364.437622070313	1356.768920898438	167.4171142578126	-1370.570068359375	1275.427001953125	301.5736389160157	-1251.923706054688	1260.166137695313	134.0653839111329	-1216.612548828125	1066.347412109375	141.4475708007813	-1285.92236328125	851.7742309570317	317.9540100097657	-1269.0439453125	874.5834350585942	98.58527374267584	-1438.1513671875	976.6687622070317	219.9953155517579	-1495.239868164063	530.2808227539065	302.7063293457032	-1447.185791015625	566.2429199218752	315.6831970214845	-1830.223632812501	211.3174896240236	187.4885253906251	-1804.586425781251	60.51313400268558	246.0512695312501	-1778.063720703126	46.00315093994142	195.2614593505861	-1245.174926757813	575.6322021484377	62.05307769775393	-1199.671997070313	636.9200439453127	49.48859405517581	-1117.9931640625	246.3746948242189	56.56042480468753	-1090.283935546875	287.2668762207032	59.39118957519534	-1097.261962890625	78.41513824462893	106.6755676269532	-913.7507934570317	83.92765808105472	113.4559860229493	-942.2236938476567	61.88634872436526	64.48415374755862	-1477.802856445313	605.0693359375002	324.3862609863282	-1457.7802734375	947.6974487304692	174.6822052001954	-1679.249267578126	334.3398742675782	278.6157836914064	-1471.948120117188	932.996215820313	181.9724273681641	-1455.871704101563	948.8037109375005	260.557098388672	-1480.052734375	926.6903686523442	231.6340332031251	-1617.192749023438	340.0771789550782	275.516326904297	-1672.511962890626	284.5947570800782	267.7011108398439	-1422.403442382813	1074.504028320313	221.7295074462892	-1248.498901367188	635.330749511719	46.25122070312501	-1141.011352539063	322.3719787597657	50.02193069458011	
6	0.025	-1348.526977539063	1358.040405273438	166.7788696289063	-1353.326293945313	1277.492797851563	301.4602661132814	-1236.371826171875	1261.796508789063	132.5834045410157	-1200.466918945313	1068.927612304688	140.5234832763672	-1269.35595703125	853.012329101563	317.4156188964845	-1252.513916015625	876.9251098632817	98.91108703613287	-1421.125122070313	978.9935913085942	219.5985717773439	-1479.97412109375	531.9479980468752	302.3753356933595	-1432.049072265625	567.8465576171877	315.919891357422	-1817.826904296876	218.1149291992189	186.384506225586	-1796.203491210938	66.79364776611331	245.4847106933595	-1769.568481445313	50.84529876708987	194.8752288818361	-1230.762329101563	576.128601074219	61.3784103393555	-1184.493774414063	636.6569824218752	47.75332260131837	-1098.980590820313	246.8988342285157	57.24146652221683	-1072.09423828125	288.4575500488282	59.65984725952151	-1074.20263671875	80.2829513549805	107.6125411987305	-890.5391235351567	87.84333038330081	116.423927307129	-918.5739746093755	64.24820709228518	67.55637359619143	-1462.556640625	606.8196411132815	323.8475952148439	-1440.8623046875	949.969116210938	174.3179321289063	-1665.583618164063	338.0024414062501	277.8380737304689	-1454.724609375	935.3085937500005	181.397689819336	-1438.7275390625	951.1749877929692	260.1009521484376	-1462.99267578125	928.9631347656255	231.0247802734376	-1603.429199218751	342.6589355468751	275.1368103027345	-1659.653076171876	288.2088623046876	267.2442626953126	-1406.38525390625	1076.308715820313	221.7697143554689	-1233.423950195313	635.8125610351565	45.18138885498048	-1123.729248046875	322.4029541015626	50.52019882202151	
